<svg width="480" height="120" viewBox="0 0 480 120" fill="none" xmlns="http://www.w3.org/2000/svg">
<g clip-path="url(#clip0_106_27)">
<path d="M466 0H14C6.26801 0 0 6.26801 0 14V106C0 113.732 6.26801 120 14 120H466C473.732 120 480 113.732 480 106V14C480 6.26801 473.732 0 466 0Z" fill="#F6F8FA"/>
<path d="M39.5 23.5H37.5C36.9477 23.5 36.5 24.1716 36.5 25V58C36.5 58.8284 36.9477 59.5 37.5 59.5H39.5C40.0523 59.5 40.5 58.8284 40.5 58V25C40.5 24.1716 40.0523 23.5 39.5 23.5Z" fill="#EA580C"/>
<path d="M48.5 23.5H46.5C45.9477 23.5 45.5 24.1716 45.5 25V58C45.5 58.8284 45.9477 59.5 46.5 59.5H48.5C49.0523 59.5 49.5 58.8284 49.5 58V25C49.5 24.1716 49.0523 23.5 48.5 23.5Z" fill="#EA580C"/>
<path d="M57.5 23.5H55.5C54.9477 23.5 54.5 24.1716 54.5 25V58C54.5 58.8284 54.9477 59.5 55.5 59.5H57.5C58.0523 59.5 58.5 58.8284 58.5 58V25C58.5 24.1716 58.0523 23.5 57.5 23.5Z" fill="#EA580C"/>
<path d="M66.5 23.5H64.5C63.9477 23.5 63.5 24.1716 63.5 25V58C63.5 58.8284 63.9477 59.5 64.5 59.5H66.5C67.0523 59.5 67.5 58.8284 67.5 58V25C67.5 24.1716 67.0523 23.5 66.5 23.5Z" fill="#EA580C"/>
<path d="M28.8376 67.7337C26.7883 65.8964 28.088 62.5 30.8402 62.5H73.1598C75.912 62.5 77.2117 65.8964 75.1624 67.7337L54.0026 86.7045C52.863 87.7263 51.137 87.7263 49.9974 86.7045L28.8376 67.7337Z" fill="#EA580C"/>
<path opacity="0.35" d="M67.5 92.5H36.5C35.1193 92.5 34 93.6193 34 95C34 96.3807 35.1193 97.5 36.5 97.5H67.5C68.8807 97.5 70 96.3807 70 95C70 93.6193 68.8807 92.5 67.5 92.5Z" fill="#EA580C"/>
<path d="M112 22.5V98.5" stroke="black" stroke-opacity="0.08"/>
<path d="M152.975 78.9316C146.576 78.9316 142.768 74.5137 142.768 66.8965V62.0723C142.768 54.4551 146.576 50.0371 152.975 50.0371C157.012 50.0371 159.805 51.916 160.744 55.2676H161.252V39.8301H168.514V78.5H161.354V73.6758H160.82C159.855 77.0781 157.088 78.9316 152.975 78.9316ZM155.666 72.9141C159.246 72.9141 161.43 70.5527 161.43 66.6934V62.0723C161.43 58.2129 159.246 55.877 155.666 55.877C152.061 55.877 149.852 58.2129 149.852 62.0723V66.6934C149.852 70.5527 152.061 72.9141 155.666 72.9141ZM200.582 78.5H176.385V72.9648H185.271V45.3652H176.842V39.8301H192.229V72.9648H200.582V78.5Z" fill="#0D1117"/>
<path d="M222.759 59.5V50.7727H228.537V52.294H224.604V54.3736H228.153V55.8949H224.604V59.5H222.759ZM230.192 59.5H228.215L231.228 50.7727H233.606L236.614 59.5H234.637L232.451 52.767H232.383L230.192 59.5ZM230.069 56.0696H234.739V57.5099H230.069V56.0696ZM242.2 53.2827C242.166 52.9389 242.02 52.6719 241.761 52.4815C241.502 52.2912 241.152 52.196 240.708 52.196C240.407 52.196 240.153 52.2386 239.946 52.3239C239.738 52.4062 239.579 52.5213 239.468 52.669C239.36 52.8168 239.306 52.9844 239.306 53.1719C239.301 53.3281 239.333 53.4645 239.404 53.581C239.478 53.6974 239.579 53.7983 239.707 53.8835C239.835 53.9659 239.983 54.0384 240.15 54.1009C240.318 54.1605 240.497 54.2116 240.687 54.2543L241.471 54.4418C241.852 54.527 242.201 54.6406 242.52 54.7827C242.838 54.9247 243.113 55.0994 243.346 55.3068C243.579 55.5142 243.76 55.7585 243.887 56.0398C244.018 56.321 244.085 56.6435 244.088 57.0071C244.085 57.5412 243.949 58.0043 243.679 58.3963C243.412 58.7855 243.025 59.0881 242.52 59.304C242.017 59.517 241.41 59.6236 240.7 59.6236C239.995 59.6236 239.382 59.5156 238.859 59.2997C238.339 59.0838 237.933 58.7642 237.64 58.3409C237.35 57.9148 237.199 57.3878 237.184 56.7599H238.97C238.99 57.0526 239.074 57.2969 239.221 57.4929C239.372 57.6861 239.572 57.8324 239.822 57.9318C240.075 58.0284 240.36 58.0767 240.679 58.0767C240.991 58.0767 241.262 58.0312 241.493 57.9403C241.725 57.8494 241.906 57.723 242.034 57.5611C242.162 57.3991 242.225 57.2131 242.225 57.0028C242.225 56.8068 242.167 56.642 242.051 56.5085C241.937 56.375 241.77 56.2614 241.548 56.1676C241.329 56.0739 241.061 55.9886 240.743 55.9119L239.792 55.6733C239.056 55.4943 238.475 55.2145 238.049 54.8338C237.623 54.4531 237.412 53.9403 237.414 53.2955C237.412 52.767 237.552 52.3054 237.836 51.9105C238.123 51.5156 238.517 51.2074 239.017 50.9858C239.517 50.7642 240.085 50.6534 240.721 50.6534C241.369 50.6534 241.934 50.7642 242.417 50.9858C242.903 51.2074 243.281 51.5156 243.551 51.9105C243.821 52.3054 243.96 52.7628 243.968 53.2827H242.2ZM244.996 52.294V50.7727H252.164V52.294H249.492V59.5H247.668V52.294H244.996ZM257.149 56.7003C256.868 56.7003 256.626 56.6009 256.424 56.402C256.225 56.2003 256.126 55.9588 256.126 55.6776C256.126 55.3991 256.225 55.1605 256.424 54.9616C256.626 54.7628 256.868 54.6634 257.149 54.6634C257.422 54.6634 257.66 54.7628 257.865 54.9616C258.069 55.1605 258.172 55.3991 258.172 55.6776C258.172 55.8651 258.123 56.0369 258.027 56.1932C257.933 56.3466 257.809 56.4702 257.656 56.5639C257.502 56.6548 257.333 56.7003 257.149 56.7003ZM262.473 59.5V50.7727H264.319V57.9787H268.06V59.5H262.473ZM271.127 50.7727V59.5H269.282V50.7727H271.127ZM278.432 53.5938C278.373 53.3864 278.289 53.2031 278.181 53.044C278.073 52.8821 277.941 52.7457 277.784 52.6349C277.631 52.5213 277.455 52.4347 277.256 52.375C277.06 52.3153 276.843 52.2855 276.604 52.2855C276.158 52.2855 275.766 52.3963 275.428 52.6179C275.093 52.8395 274.831 53.1619 274.644 53.5852C274.456 54.0057 274.363 54.5199 274.363 55.1278C274.363 55.7358 274.455 56.2528 274.64 56.679C274.824 57.1051 275.086 57.4304 275.424 57.6548C275.762 57.8764 276.161 57.9872 276.621 57.9872C277.039 57.9872 277.395 57.9134 277.691 57.7656C277.989 57.6151 278.216 57.4034 278.373 57.1307C278.532 56.858 278.611 56.5355 278.611 56.1634L278.986 56.2188H276.736V54.8295H280.388V55.929C280.388 56.696 280.226 57.3551 279.902 57.9062C279.578 58.4545 279.132 58.8778 278.564 59.1761C277.996 59.4716 277.346 59.6193 276.613 59.6193C275.794 59.6193 275.076 59.4389 274.456 59.0781C273.837 58.7145 273.354 58.1989 273.007 57.5312C272.664 56.8608 272.492 56.0653 272.492 55.1449C272.492 54.4375 272.594 53.8068 272.799 53.2528C273.006 52.696 273.296 52.2244 273.668 51.8381C274.04 51.4517 274.473 51.1577 274.968 50.956C275.462 50.7543 275.998 50.6534 276.574 50.6534C277.069 50.6534 277.529 50.7259 277.955 50.8707C278.381 51.0128 278.759 51.2145 279.088 51.4759C279.421 51.7372 279.692 52.0483 279.902 52.4091C280.113 52.767 280.248 53.1619 280.307 53.5938H278.432ZM281.774 59.5V50.7727H283.619V54.3736H287.365V50.7727H289.206V59.5H287.365V55.8949H283.619V59.5H281.774ZM290.395 52.294V50.7727H297.562V52.294H294.891V59.5H293.067V52.294H290.395ZM300.707 59.5L298.21 50.7727H300.226L301.67 56.8366H301.743L303.337 50.7727H305.062L306.652 56.8494H306.729L308.173 50.7727H310.189L307.692 59.5H305.893L304.232 53.794H304.163L302.506 59.5H300.707ZM311.176 59.5V50.7727H317.057V52.294H313.022V54.3736H316.755V55.8949H313.022V57.9787H317.074V59.5H311.176ZM320.369 50.7727V59.5H318.524V50.7727H320.369ZM327.674 53.5938C327.615 53.3864 327.531 53.2031 327.423 53.044C327.315 52.8821 327.183 52.7457 327.027 52.6349C326.873 52.5213 326.697 52.4347 326.498 52.375C326.302 52.3153 326.085 52.2855 325.846 52.2855C325.4 52.2855 325.008 52.3963 324.67 52.6179C324.335 52.8395 324.074 53.1619 323.886 53.5852C323.699 54.0057 323.605 54.5199 323.605 55.1278C323.605 55.7358 323.697 56.2528 323.882 56.679C324.066 57.1051 324.328 57.4304 324.666 57.6548C325.004 57.8764 325.403 57.9872 325.863 57.9872C326.281 57.9872 326.637 57.9134 326.933 57.7656C327.231 57.6151 327.458 57.4034 327.615 57.1307C327.774 56.858 327.853 56.5355 327.853 56.1634L328.228 56.2188H325.978V54.8295H329.63V55.929C329.63 56.696 329.468 57.3551 329.145 57.9062C328.821 58.4545 328.375 58.8778 327.806 59.1761C327.238 59.4716 326.588 59.6193 325.855 59.6193C325.037 59.6193 324.318 59.4389 323.699 59.0781C323.079 58.7145 322.596 58.1989 322.25 57.5312C321.906 56.8608 321.734 56.0653 321.734 55.1449C321.734 54.4375 321.836 53.8068 322.041 53.2528C322.248 52.696 322.538 52.2244 322.91 51.8381C323.282 51.4517 323.716 51.1577 324.21 50.956C324.704 50.7543 325.24 50.6534 325.816 50.6534C326.311 50.6534 326.771 50.7259 327.197 50.8707C327.623 51.0128 328.001 51.2145 328.331 51.4759C328.663 51.7372 328.934 52.0483 329.145 52.4091C329.355 52.767 329.49 53.1619 329.549 53.5938H327.674ZM331.016 59.5V50.7727H332.862V54.3736H336.607V50.7727H338.448V59.5H336.607V55.8949H332.862V59.5H331.016ZM339.637 52.294V50.7727H346.805V52.294H344.133V59.5H342.309V52.294H339.637ZM351.789 56.7003C351.508 56.7003 351.267 56.6009 351.065 56.402C350.866 56.2003 350.767 55.9588 350.767 55.6776C350.767 55.3991 350.866 55.1605 351.065 54.9616C351.267 54.7628 351.508 54.6634 351.789 54.6634C352.062 54.6634 352.301 54.7628 352.505 54.9616C352.71 55.1605 352.812 55.3991 352.812 55.6776C352.812 55.8651 352.764 56.0369 352.667 56.1932C352.574 56.3466 352.45 56.4702 352.297 56.5639C352.143 56.6548 351.974 56.7003 351.789 56.7003ZM357.114 59.5V50.7727H360.557C361.216 50.7727 361.779 50.8906 362.245 51.1264C362.713 51.3594 363.07 51.6903 363.314 52.1193C363.561 52.5455 363.685 53.0469 363.685 53.6236C363.685 54.2031 363.56 54.7017 363.31 55.1193C363.06 55.5341 362.698 55.8523 362.223 56.0739C361.752 56.2955 361.181 56.4062 360.51 56.4062H358.205V54.9233H360.212C360.564 54.9233 360.857 54.875 361.09 54.7784C361.323 54.6818 361.496 54.5369 361.61 54.3438C361.726 54.1506 361.784 53.9105 361.784 53.6236C361.784 53.3338 361.726 53.0895 361.61 52.8906C361.496 52.6918 361.321 52.5412 361.086 52.4389C360.853 52.3338 360.559 52.2812 360.203 52.2812H358.959V59.5H357.114ZM361.827 55.5284L363.996 59.5H361.959L359.837 55.5284H361.827ZM364.989 59.5V50.7727H370.87V52.294H366.834V54.3736H370.567V55.8949H366.834V57.9787H370.887V59.5H364.989ZM377.071 53.2827C377.037 52.9389 376.891 52.6719 376.632 52.4815C376.374 52.2912 376.023 52.196 375.58 52.196C375.278 52.196 375.024 52.2386 374.817 52.3239C374.609 52.4062 374.45 52.5213 374.339 52.669C374.232 52.8168 374.178 52.9844 374.178 53.1719C374.172 53.3281 374.205 53.4645 374.276 53.581C374.349 53.6974 374.45 53.7983 374.578 53.8835C374.706 53.9659 374.854 54.0384 375.021 54.1009C375.189 54.1605 375.368 54.2116 375.558 54.2543L376.342 54.4418C376.723 54.527 377.072 54.6406 377.391 54.7827C377.709 54.9247 377.984 55.0994 378.217 55.3068C378.45 55.5142 378.631 55.7585 378.759 56.0398C378.889 56.321 378.956 56.6435 378.959 57.0071C378.956 57.5412 378.82 58.0043 378.55 58.3963C378.283 58.7855 377.896 59.0881 377.391 59.304C376.888 59.517 376.281 59.6236 375.571 59.6236C374.866 59.6236 374.253 59.5156 373.73 59.2997C373.21 59.0838 372.804 58.7642 372.511 58.3409C372.222 57.9148 372.07 57.3878 372.055 56.7599H373.841C373.861 57.0526 373.945 57.2969 374.092 57.4929C374.243 57.6861 374.443 57.8324 374.693 57.9318C374.946 58.0284 375.232 58.0767 375.55 58.0767C375.862 58.0767 376.134 58.0312 376.364 57.9403C376.597 57.8494 376.777 57.723 376.905 57.5611C377.033 57.3991 377.097 57.2131 377.097 57.0028C377.097 56.8068 377.038 56.642 376.922 56.5085C376.808 56.375 376.641 56.2614 376.419 56.1676C376.2 56.0739 375.932 55.9886 375.614 55.9119L374.663 55.6733C373.928 55.4943 373.347 55.2145 372.92 54.8338C372.494 54.4531 372.283 53.9403 372.286 53.2955C372.283 52.767 372.423 52.3054 372.707 51.9105C372.994 51.5156 373.388 51.2074 373.888 50.9858C374.388 50.7642 374.956 50.6534 375.592 50.6534C376.24 50.6534 376.805 50.7642 377.288 50.9858C377.774 51.2074 378.152 51.5156 378.422 51.9105C378.692 52.3054 378.831 52.7628 378.839 53.2827H377.071ZM385.591 50.7727H387.436V56.4403C387.436 57.0767 387.284 57.6335 386.98 58.1108C386.679 58.5881 386.257 58.9602 385.714 59.2273C385.172 59.4915 384.539 59.6236 383.818 59.6236C383.093 59.6236 382.46 59.4915 381.917 59.2273C381.375 58.9602 380.953 58.5881 380.652 58.1108C380.35 57.6335 380.2 57.0767 380.2 56.4403V50.7727H382.045V56.2827C382.045 56.6151 382.118 56.9105 382.262 57.169C382.41 57.4276 382.618 57.6307 382.885 57.7784C383.152 57.9261 383.463 58 383.818 58C384.176 58 384.487 57.9261 384.751 57.7784C385.018 57.6307 385.224 57.4276 385.369 57.169C385.517 56.9105 385.591 56.6151 385.591 56.2827V50.7727ZM388.954 50.7727H391.229L393.633 56.6364H393.735L396.138 50.7727H398.414V59.5H396.624V53.8196H396.552L394.293 59.4574H393.075L390.816 53.7983H390.744V59.5H388.954V50.7727ZM401.439 59.5H399.461L402.474 50.7727H404.852L407.86 59.5H405.883L403.697 52.767H403.629L401.439 59.5ZM401.315 56.0696H405.985V57.5099H401.315V56.0696ZM408.911 59.5V50.7727H412.405C413.047 50.7727 413.583 50.8679 414.012 51.0582C414.441 51.2486 414.763 51.5128 414.979 51.8509C415.195 52.1861 415.303 52.5724 415.303 53.0099C415.303 53.3509 415.235 53.6506 415.098 53.9091C414.962 54.1648 414.775 54.375 414.536 54.5398C414.3 54.7017 414.03 54.8168 413.726 54.8849V54.9702C414.059 54.9844 414.37 55.0781 414.659 55.2514C414.952 55.4247 415.189 55.6676 415.371 55.9801C415.553 56.2898 415.644 56.6591 415.644 57.0881C415.644 57.5511 415.529 57.9645 415.299 58.3281C415.071 58.6889 414.735 58.9744 414.289 59.1847C413.843 59.3949 413.293 59.5 412.64 59.5H408.911ZM410.756 57.9915H412.26C412.775 57.9915 413.15 57.8935 413.385 57.6974C413.621 57.4986 413.739 57.2344 413.739 56.9048C413.739 56.6634 413.681 56.4503 413.564 56.2656C413.448 56.081 413.282 55.9361 413.066 55.831C412.853 55.7259 412.598 55.6733 412.303 55.6733H410.756V57.9915ZM410.756 54.4247H412.124C412.377 54.4247 412.601 54.3807 412.797 54.2926C412.996 54.2017 413.152 54.0739 413.266 53.9091C413.382 53.7443 413.441 53.5469 413.441 53.3168C413.441 53.0014 413.328 52.7472 413.104 52.554C412.882 52.3608 412.567 52.2642 412.158 52.2642H410.756V54.4247ZM416.844 59.5V50.7727H418.69V57.9787H422.431V59.5H416.844ZM423.653 59.5V50.7727H429.534V52.294H425.498V54.3736H429.231V55.8949H425.498V57.9787H429.551V59.5H423.653Z" fill="#EA580C"/>
<path d="M223.145 78.5V69.0455H224.29V73.2557H229.331V69.0455H230.476V78.5H229.331V74.2713H224.29V78.5H223.145ZM232.251 70.0611V69.0455H239.342V70.0611H236.369V78.5H235.224V70.0611H232.251ZM240.592 70.0611V69.0455H247.683V70.0611H244.71V78.5H243.565V70.0611H240.592ZM249.45 78.5V69.0455H252.644C253.386 69.0455 253.992 69.1793 254.463 69.4471C254.937 69.7118 255.288 70.0703 255.516 70.5227C255.743 70.9751 255.857 71.4799 255.857 72.0369C255.857 72.594 255.743 73.1003 255.516 73.5558C255.291 74.0112 254.943 74.3744 254.472 74.6452C254.001 74.913 253.398 75.0469 252.663 75.0469H250.373V74.0312H252.626C253.134 74.0312 253.541 73.9435 253.849 73.7681C254.157 73.5927 254.38 73.3557 254.518 73.0572C254.66 72.7556 254.731 72.4155 254.731 72.0369C254.731 71.6584 254.66 71.3198 254.518 71.0213C254.38 70.7228 254.155 70.4889 253.844 70.3196C253.534 70.1473 253.121 70.0611 252.607 70.0611H250.594V78.5H249.45ZM263.888 78.6293C263.266 78.6293 262.73 78.5154 262.281 78.2876C261.832 78.0599 261.485 77.7475 261.242 77.3505C260.999 76.9535 260.878 76.4995 260.878 75.9886C260.878 75.5947 260.961 75.2454 261.127 74.9407C261.296 74.6329 261.529 74.3482 261.824 74.0866C262.123 73.822 262.466 73.5573 262.854 73.2926L264.22 72.277C264.488 72.1016 264.702 71.9138 264.862 71.7138C265.025 71.5137 265.106 71.2521 265.106 70.929C265.106 70.6889 265 70.4566 264.788 70.2319C264.579 70.0072 264.303 69.8949 263.961 69.8949C263.721 69.8949 263.509 69.9564 263.324 70.0795C263.143 70.1996 263 70.3535 262.895 70.5412C262.794 70.7259 262.743 70.9167 262.743 71.1136C262.743 71.3352 262.803 71.5599 262.923 71.7876C263.046 72.0123 263.201 72.2431 263.389 72.4801C263.58 72.714 263.777 72.9541 263.98 73.2003L268.319 78.5H267.008L263.426 74.179C263.094 73.7789 262.792 73.4157 262.521 73.0895C262.25 72.7633 262.035 72.4416 261.875 72.1246C261.715 71.8076 261.635 71.4645 261.635 71.0952C261.635 70.6705 261.729 70.2981 261.916 69.978C262.107 69.6548 262.373 69.404 262.715 69.2255C263.06 69.0439 263.463 68.9531 263.925 68.9531C264.398 68.9531 264.806 69.0455 265.148 69.2301C265.49 69.4117 265.753 69.6533 265.937 69.9549C266.122 70.2534 266.214 70.5781 266.214 70.929C266.214 71.3814 266.102 71.7738 265.877 72.1062C265.653 72.4386 265.346 72.7479 264.959 73.0341L263.075 74.4375C262.65 74.7514 262.363 75.0561 262.212 75.3516C262.061 75.647 261.986 75.8594 261.986 75.9886C261.986 76.2841 262.063 76.5595 262.216 76.815C262.37 77.0704 262.587 77.2766 262.867 77.4336C263.147 77.5906 263.475 77.669 263.851 77.669C264.208 77.669 264.555 77.5936 264.894 77.4428C265.233 77.2889 265.539 77.0674 265.813 76.7781C266.09 76.4888 266.308 76.141 266.468 75.7347C266.631 75.3285 266.713 74.8714 266.713 74.3636H267.765C267.765 74.9915 267.693 75.5039 267.548 75.9009C267.404 76.2979 267.241 76.6088 267.059 76.8335C266.878 77.0581 266.731 77.2259 266.621 77.3366C266.584 77.3828 266.55 77.429 266.519 77.4751C266.488 77.5213 266.454 77.5675 266.417 77.6136C266.113 77.9553 265.728 78.2107 265.263 78.38C264.799 78.5462 264.34 78.6293 263.888 78.6293ZM273.329 78.5V69.0455H276.635C277.293 69.0455 277.837 69.1593 278.264 69.3871C278.692 69.6117 279.011 69.9149 279.22 70.2965C279.429 70.6751 279.534 71.0952 279.534 71.5568C279.534 71.9631 279.462 72.2985 279.317 72.5632C279.175 72.8279 278.988 73.0372 278.754 73.1911C278.523 73.3449 278.272 73.4588 278.001 73.5327V73.625C278.291 73.6435 278.581 73.745 278.874 73.9297C279.166 74.1143 279.411 74.379 279.608 74.7237C279.805 75.0684 279.903 75.4901 279.903 75.9886C279.903 76.4626 279.796 76.8888 279.58 77.2674C279.365 77.646 279.025 77.946 278.56 78.1676C278.095 78.3892 277.49 78.5 276.746 78.5H273.329ZM274.474 77.4844H276.746C277.494 77.4844 278.024 77.3397 278.338 77.0504C278.655 76.758 278.814 76.4041 278.814 75.9886C278.814 75.6686 278.732 75.3731 278.569 75.1023C278.406 74.8284 278.174 74.6098 277.872 74.4467C277.57 74.2805 277.213 74.1974 276.801 74.1974H274.474V77.4844ZM274.474 73.2003H276.598C276.943 73.2003 277.253 73.1326 277.53 72.9972C277.811 72.8617 278.032 72.6709 278.195 72.4247C278.361 72.1785 278.445 71.8892 278.445 71.5568C278.445 71.1413 278.3 70.7889 278.011 70.4996C277.721 70.2073 277.263 70.0611 276.635 70.0611H274.474V73.2003ZM281.637 78.5V71.4091H282.726V78.5H281.637ZM282.191 70.2273C281.978 70.2273 281.795 70.1549 281.641 70.0103C281.491 69.8656 281.415 69.6918 281.415 69.4886C281.415 69.2855 281.491 69.1116 281.641 68.967C281.795 68.8223 281.978 68.75 282.191 68.75C282.403 68.75 282.585 68.8223 282.736 68.967C282.889 69.1116 282.966 69.2855 282.966 69.4886C282.966 69.6918 282.889 69.8656 282.736 70.0103C282.585 70.1549 282.403 70.2273 282.191 70.2273ZM287.806 71.4091V72.3324H284.131V71.4091H287.806ZM285.202 69.7102H286.291V76.4688C286.291 76.7765 286.336 77.0073 286.425 77.1612C286.518 77.312 286.635 77.4136 286.776 77.4659C286.921 77.5152 287.073 77.5398 287.233 77.5398C287.353 77.5398 287.452 77.5336 287.529 77.5213C287.606 77.5059 287.667 77.4936 287.713 77.4844L287.935 78.4631C287.861 78.4908 287.758 78.5185 287.626 78.5462C287.493 78.5769 287.325 78.5923 287.122 78.5923C286.815 78.5923 286.513 78.5262 286.218 78.3938C285.925 78.2615 285.682 78.0599 285.488 77.7891C285.297 77.5182 285.202 77.1766 285.202 76.7642V69.7102ZM288.631 70.0611V69.0455H295.722V70.0611H292.749V78.5H291.604V70.0611H288.631ZM299.193 78.6477C298.553 78.6477 297.991 78.4954 297.508 78.1907C297.028 77.886 296.653 77.4598 296.382 76.9119C296.114 76.3641 295.98 75.724 295.98 74.9915C295.98 74.2528 296.114 73.6081 296.382 73.0572C296.653 72.5063 297.028 72.0785 297.508 71.7738C297.991 71.4691 298.553 71.3168 299.193 71.3168C299.833 71.3168 300.394 71.4691 300.874 71.7738C301.357 72.0785 301.732 72.5063 302 73.0572C302.271 73.6081 302.406 74.2528 302.406 74.9915C302.406 75.724 302.271 76.3641 302 76.9119C301.732 77.4598 301.357 77.886 300.874 78.1907C300.394 78.4954 299.833 78.6477 299.193 78.6477ZM299.193 77.669C299.68 77.669 300.08 77.5444 300.394 77.2951C300.707 77.0458 300.94 76.718 301.091 76.3118C301.241 75.9055 301.317 75.4654 301.317 74.9915C301.317 74.5175 301.241 74.0759 301.091 73.6665C300.94 73.2572 300.707 72.9264 300.394 72.674C300.08 72.4216 299.68 72.2955 299.193 72.2955C298.707 72.2955 298.307 72.4216 297.993 72.674C297.679 72.9264 297.447 73.2572 297.296 73.6665C297.145 74.0759 297.07 74.5175 297.07 74.9915C297.07 75.4654 297.145 75.9055 297.296 76.3118C297.447 76.718 297.679 77.0458 297.993 77.2951C298.307 77.5444 298.707 77.669 299.193 77.669ZM304.069 78.5V71.4091H305.122V72.4801H305.196C305.325 72.1293 305.559 71.8446 305.898 71.6261C306.236 71.4076 306.618 71.2983 307.042 71.2983C307.122 71.2983 307.222 71.2998 307.343 71.3029C307.463 71.306 307.553 71.3106 307.615 71.3168V72.4247C307.578 72.4155 307.493 72.4016 307.361 72.3832C307.232 72.3616 307.095 72.3509 306.95 72.3509C306.605 72.3509 306.298 72.4232 306.027 72.5678C305.759 72.7094 305.547 72.9064 305.39 73.1587C305.236 73.408 305.159 73.6927 305.159 74.0128V78.5H304.069ZM308.906 78.5V71.4091H309.959V72.4801H310.033C310.162 72.1293 310.396 71.8446 310.734 71.6261C311.073 71.4076 311.455 71.2983 311.879 71.2983C311.959 71.2983 312.059 71.2998 312.179 71.3029C312.299 71.306 312.39 71.3106 312.452 71.3168V72.4247C312.415 72.4155 312.33 72.4016 312.198 72.3832C312.069 72.3616 311.932 72.3509 311.787 72.3509C311.442 72.3509 311.135 72.4232 310.864 72.5678C310.596 72.7094 310.384 72.9064 310.227 73.1587C310.073 73.408 309.996 73.6927 309.996 74.0128V78.5H308.906ZM316.5 78.6477C315.817 78.6477 315.228 78.4969 314.732 78.1953C314.24 77.8906 313.86 77.4659 313.592 76.9212C313.327 76.3733 313.195 75.7363 313.195 75.0099C313.195 74.2836 313.327 73.6435 313.592 73.0895C313.86 72.5324 314.232 72.0985 314.709 71.7876C315.189 71.4737 315.749 71.3168 316.39 71.3168C316.759 71.3168 317.124 71.3783 317.484 71.5014C317.844 71.6245 318.172 71.8246 318.467 72.1016C318.763 72.3755 318.998 72.7386 319.173 73.1911C319.349 73.6435 319.437 74.2005 319.437 74.8622V75.3239H313.971V74.3821H318.329C318.329 73.982 318.249 73.625 318.089 73.3111C317.932 72.9972 317.707 72.7494 317.415 72.5678C317.125 72.3862 316.784 72.2955 316.39 72.2955C315.956 72.2955 315.58 72.4032 315.263 72.6186C314.949 72.831 314.708 73.108 314.538 73.4496C314.369 73.7912 314.285 74.1574 314.285 74.5483V75.1761C314.285 75.7116 314.377 76.1656 314.562 76.538C314.749 76.9073 315.009 77.1889 315.342 77.3828C315.674 77.5736 316.06 77.669 316.5 77.669C316.787 77.669 317.045 77.629 317.276 77.549C317.51 77.4659 317.711 77.3428 317.881 77.1797C318.05 77.0135 318.181 76.8073 318.273 76.5611L319.326 76.8565C319.215 77.2135 319.029 77.5275 318.767 77.7983C318.506 78.0661 318.182 78.2753 317.798 78.4261C317.413 78.5739 316.981 78.6477 316.5 78.6477ZM322.183 74.2344V78.5H321.094V71.4091H322.146V72.517H322.239C322.405 72.157 322.657 71.8677 322.996 71.6491C323.334 71.4276 323.771 71.3168 324.307 71.3168C324.787 71.3168 325.207 71.4152 325.567 71.6122C325.927 71.8061 326.207 72.1016 326.407 72.4986C326.607 72.8925 326.707 73.3911 326.707 73.9943V78.5H325.618V74.0682C325.618 73.5111 325.473 73.0772 325.184 72.7663C324.895 72.4524 324.498 72.2955 323.993 72.2955C323.645 72.2955 323.334 72.3709 323.06 72.5217C322.79 72.6725 322.576 72.8925 322.419 73.1818C322.262 73.4711 322.183 73.822 322.183 74.2344ZM331.782 71.4091V72.3324H328.107V71.4091H331.782ZM329.178 69.7102H330.268V76.4688C330.268 76.7765 330.313 77.0073 330.402 77.1612C330.494 77.312 330.611 77.4136 330.753 77.4659C330.897 77.5152 331.05 77.5398 331.21 77.5398C331.33 77.5398 331.428 77.5336 331.505 77.5213C331.582 77.5059 331.644 77.4936 331.69 77.4844L331.911 78.4631C331.838 78.4908 331.734 78.5185 331.602 78.5462C331.47 78.5769 331.302 78.5923 331.099 78.5923C330.791 78.5923 330.49 78.5262 330.194 78.3938C329.902 78.2615 329.659 78.0599 329.465 77.7891C329.274 77.5182 329.178 77.1766 329.178 76.7642V69.7102ZM339.755 78.6477C339.164 78.6477 338.642 78.4985 338.19 78.1999C337.737 77.8983 337.383 77.4736 337.128 76.9258C336.873 76.3749 336.745 75.724 336.745 74.973C336.745 74.2282 336.873 73.5819 337.128 73.0341C337.383 72.4863 337.739 72.0631 338.194 71.7646C338.65 71.466 339.176 71.3168 339.773 71.3168C340.235 71.3168 340.6 71.3937 340.867 71.5476C341.138 71.6984 341.344 71.8707 341.486 72.0646C341.631 72.2554 341.743 72.4124 341.823 72.5355H341.915V69.0455H343.005V78.5H341.952V77.4105H341.823C341.743 77.5398 341.629 77.7029 341.481 77.8999C341.334 78.0937 341.123 78.2676 340.849 78.4215C340.575 78.5723 340.21 78.6477 339.755 78.6477ZM339.903 77.669C340.34 77.669 340.709 77.5552 341.01 77.3274C341.312 77.0966 341.541 76.7781 341.698 76.3718C341.855 75.9625 341.934 75.4901 341.934 74.9545C341.934 74.4252 341.857 73.962 341.703 73.565C341.549 73.1649 341.321 72.854 341.02 72.6325C340.718 72.4078 340.346 72.2955 339.903 72.2955C339.441 72.2955 339.056 72.4139 338.748 72.6509C338.444 72.8848 338.214 73.2034 338.061 73.6065C337.91 74.0066 337.834 74.456 337.834 74.9545C337.834 75.4593 337.911 75.9179 338.065 76.3303C338.222 76.7396 338.453 77.0658 338.758 77.3089C339.065 77.549 339.447 77.669 339.903 77.669ZM348.032 78.6477C347.392 78.6477 346.83 78.4954 346.347 78.1907C345.867 77.886 345.492 77.4598 345.221 76.9119C344.953 76.3641 344.819 75.724 344.819 74.9915C344.819 74.2528 344.953 73.6081 345.221 73.0572C345.492 72.5063 345.867 72.0785 346.347 71.7738C346.83 71.4691 347.392 71.3168 348.032 71.3168C348.672 71.3168 349.232 71.4691 349.713 71.7738C350.196 72.0785 350.571 72.5063 350.839 73.0572C351.11 73.6081 351.245 74.2528 351.245 74.9915C351.245 75.724 351.11 76.3641 350.839 76.9119C350.571 77.4598 350.196 77.886 349.713 78.1907C349.232 78.4954 348.672 78.6477 348.032 78.6477ZM348.032 77.669C348.518 77.669 348.919 77.5444 349.232 77.2951C349.546 77.0458 349.779 76.718 349.93 76.3118C350.08 75.9055 350.156 75.4654 350.156 74.9915C350.156 74.5175 350.08 74.0759 349.93 73.6665C349.779 73.2572 349.546 72.9264 349.232 72.674C348.919 72.4216 348.518 72.2955 348.032 72.2955C347.546 72.2955 347.146 72.4216 346.832 72.674C346.518 72.9264 346.286 73.2572 346.135 73.6665C345.984 74.0759 345.909 74.5175 345.909 74.9915C345.909 75.4654 345.984 75.9055 346.135 76.3118C346.286 76.718 346.518 77.0458 346.832 77.2951C347.146 77.5444 347.546 77.669 348.032 77.669ZM354.274 78.5L352.113 71.4091H353.258L354.791 76.8381H354.865L356.379 71.4091H357.542L359.038 76.8196H359.112L360.644 71.4091H361.789L359.629 78.5H358.558L357.007 73.0526H356.896L355.345 78.5H354.274ZM364.319 74.2344V78.5H363.23V71.4091H364.282V72.517H364.374C364.541 72.157 364.793 71.8677 365.132 71.6491C365.47 71.4276 365.907 71.3168 366.443 71.3168C366.923 71.3168 367.343 71.4152 367.703 71.6122C368.063 71.8061 368.343 72.1016 368.543 72.4986C368.743 72.8925 368.843 73.3911 368.843 73.9943V78.5H367.754V74.0682C367.754 73.5111 367.609 73.0772 367.32 72.7663C367.03 72.4524 366.633 72.2955 366.129 72.2955C365.781 72.2955 365.47 72.3709 365.196 72.5217C364.925 72.6725 364.711 72.8925 364.555 73.1818C364.398 73.4711 364.319 73.822 364.319 74.2344ZM371.924 69.0455V78.5H370.834V69.0455H371.924ZM376.8 78.6477C376.16 78.6477 375.598 78.4954 375.115 78.1907C374.635 77.886 374.259 77.4598 373.988 76.9119C373.721 76.3641 373.587 75.724 373.587 74.9915C373.587 74.2528 373.721 73.6081 373.988 73.0572C374.259 72.5063 374.635 72.0785 375.115 71.7738C375.598 71.4691 376.16 71.3168 376.8 71.3168C377.44 71.3168 378 71.4691 378.48 71.7738C378.963 72.0785 379.339 72.5063 379.607 73.0572C379.877 73.6081 380.013 74.2528 380.013 74.9915C380.013 75.724 379.877 76.3641 379.607 76.9119C379.339 77.4598 378.963 77.886 378.48 78.1907C378 78.4954 377.44 78.6477 376.8 78.6477ZM376.8 77.669C377.286 77.669 377.686 77.5444 378 77.2951C378.314 77.0458 378.546 76.718 378.697 76.3118C378.848 75.9055 378.923 75.4654 378.923 74.9915C378.923 74.5175 378.848 74.0759 378.697 73.6665C378.546 73.2572 378.314 72.9264 378 72.674C377.686 72.4216 377.286 72.2955 376.8 72.2955C376.313 72.2955 375.913 72.4216 375.599 72.674C375.286 72.9264 375.053 73.2572 374.902 73.6665C374.752 74.0759 374.676 74.5175 374.676 74.9915C374.676 75.4654 374.752 75.9055 374.902 76.3118C375.053 76.718 375.286 77.0458 375.599 77.2951C375.913 77.5444 376.313 77.669 376.8 77.669ZM383.763 78.6662C383.313 78.6662 382.905 78.5816 382.539 78.4123C382.173 78.2399 381.882 77.9922 381.667 77.669C381.451 77.3428 381.343 76.9489 381.343 76.4872C381.343 76.081 381.424 75.7517 381.584 75.4993C381.744 75.2438 381.957 75.0438 382.225 74.8991C382.493 74.7545 382.788 74.6468 383.112 74.576C383.438 74.5021 383.766 74.4437 384.095 74.4006C384.526 74.3452 384.875 74.3036 385.143 74.2759C385.414 74.2451 385.611 74.1944 385.734 74.1236C385.86 74.0528 385.923 73.9297 385.923 73.7543V73.7173C385.923 73.2618 385.798 72.9079 385.549 72.6555C385.303 72.4032 384.929 72.277 384.427 72.277C383.907 72.277 383.499 72.3909 383.204 72.6186C382.908 72.8464 382.701 73.0895 382.581 73.348L381.547 72.9787C381.731 72.5478 381.977 72.2124 382.285 71.9723C382.596 71.7292 382.935 71.5599 383.301 71.4645C383.67 71.366 384.033 71.3168 384.39 71.3168C384.618 71.3168 384.88 71.3445 385.175 71.3999C385.474 71.4522 385.761 71.5614 386.038 71.7276C386.319 71.8938 386.551 72.1446 386.736 72.4801C386.92 72.8156 387.013 73.2649 387.013 73.8281V78.5H385.923V77.5398H385.868C385.794 77.6937 385.671 77.8583 385.498 78.0337C385.326 78.2092 385.097 78.3584 384.81 78.4815C384.524 78.6046 384.175 78.6662 383.763 78.6662ZM383.929 77.6875C384.36 77.6875 384.723 77.6029 385.018 77.4336C385.317 77.2643 385.541 77.0458 385.692 76.7781C385.846 76.5103 385.923 76.2287 385.923 75.9332V74.9361C385.877 74.9915 385.775 75.0423 385.618 75.0884C385.464 75.1315 385.286 75.17 385.083 75.2038C384.883 75.2346 384.687 75.2623 384.497 75.2869C384.309 75.3085 384.156 75.3269 384.04 75.3423C383.756 75.3793 383.492 75.4393 383.245 75.5224C383.002 75.6024 382.805 75.724 382.655 75.8871C382.507 76.0471 382.433 76.2656 382.433 76.5426C382.433 76.9212 382.573 77.2074 382.853 77.4013C383.136 77.5921 383.495 77.6875 383.929 77.6875ZM391.679 78.6477C391.088 78.6477 390.566 78.4985 390.114 78.1999C389.661 77.8983 389.307 77.4736 389.052 76.9258C388.796 76.3749 388.669 75.724 388.669 74.973C388.669 74.2282 388.796 73.5819 389.052 73.0341C389.307 72.4863 389.663 72.0631 390.118 71.7646C390.574 71.466 391.1 71.3168 391.697 71.3168C392.159 71.3168 392.523 71.3937 392.791 71.5476C393.062 71.6984 393.268 71.8707 393.41 72.0646C393.554 72.2554 393.667 72.4124 393.747 72.5355H393.839V69.0455H394.929V78.5H393.876V77.4105H393.747C393.667 77.5398 393.553 77.7029 393.405 77.8999C393.257 78.0937 393.047 78.2676 392.773 78.4215C392.499 78.5723 392.134 78.6477 391.679 78.6477ZM391.826 77.669C392.263 77.669 392.633 77.5552 392.934 77.3274C393.236 77.0966 393.465 76.7781 393.622 76.3718C393.779 75.9625 393.858 75.4901 393.858 74.9545C393.858 74.4252 393.781 73.962 393.627 73.565C393.473 73.1649 393.245 72.854 392.944 72.6325C392.642 72.4078 392.27 72.2955 391.826 72.2955C391.365 72.2955 390.98 72.4139 390.672 72.6509C390.368 72.8848 390.138 73.2034 389.984 73.6065C389.834 74.0066 389.758 74.456 389.758 74.9545C389.758 75.4593 389.835 75.9179 389.989 76.3303C390.146 76.7396 390.377 77.0658 390.681 77.3089C390.989 77.549 391.371 77.669 391.826 77.669ZM400.048 78.6477C399.365 78.6477 398.776 78.4969 398.28 78.1953C397.788 77.8906 397.408 77.4659 397.14 76.9212C396.875 76.3733 396.743 75.7363 396.743 75.0099C396.743 74.2836 396.875 73.6435 397.14 73.0895C397.408 72.5324 397.78 72.0985 398.257 71.7876C398.737 71.4737 399.297 71.3168 399.938 71.3168C400.307 71.3168 400.672 71.3783 401.032 71.5014C401.392 71.6245 401.719 71.8246 402.015 72.1016C402.31 72.3755 402.546 72.7386 402.721 73.1911C402.897 73.6435 402.984 74.2005 402.984 74.8622V75.3239H397.518V74.3821H401.876C401.876 73.982 401.796 73.625 401.636 73.3111C401.479 72.9972 401.255 72.7494 400.962 72.5678C400.673 72.3862 400.331 72.2955 399.938 72.2955C399.504 72.2955 399.128 72.4032 398.811 72.6186C398.497 72.831 398.256 73.108 398.086 73.4496C397.917 73.7912 397.832 74.1574 397.832 74.5483V75.1761C397.832 75.7116 397.925 76.1656 398.109 76.538C398.297 76.9073 398.557 77.1889 398.89 77.3828C399.222 77.5736 399.608 77.669 400.048 77.669C400.335 77.669 400.593 77.629 400.824 77.549C401.058 77.4659 401.259 77.3428 401.429 77.1797C401.598 77.0135 401.729 76.8073 401.821 76.5611L402.874 76.8565C402.763 77.2135 402.577 77.5275 402.315 77.7983C402.053 78.0661 401.73 78.2753 401.346 78.4261C400.961 78.5739 400.528 78.6477 400.048 78.6477ZM404.642 78.5V71.4091H405.694V72.4801H405.768C405.897 72.1293 406.131 71.8446 406.47 71.6261C406.808 71.4076 407.19 71.2983 407.615 71.2983C407.695 71.2983 407.795 71.2998 407.915 71.3029C408.035 71.306 408.126 71.3106 408.187 71.3168V72.4247C408.15 72.4155 408.066 72.4016 407.933 72.3832C407.804 72.3616 407.667 72.3509 407.522 72.3509C407.178 72.3509 406.87 72.4232 406.599 72.5678C406.331 72.7094 406.119 72.9064 405.962 73.1587C405.808 73.408 405.731 73.6927 405.731 74.0128V78.5H404.642Z" fill="#57606A"/>
</g>
<defs>
<clipPath id="clip0_106_27">
<rect width="480" height="120" fill="white"/>
</clipPath>
</defs>
</svg>
